<svg xmlns="http://www.w3.org/2000/svg" id="Layer_1" version="1.1" viewBox="0 0 36 36">
  <defs>
    <radialGradient id="radial-gradient" cx="-936.8" cy="526.6" r="1.3" fx="-936.8" fy="526.6" gradientTransform="scale(33 -33) rotate(53.2 59.78 1199.35)" gradientUnits="userSpaceOnUse">
      <stop offset="0" stop-color="#1b854c"/>
      <stop offset="1" stop-color="#26da79"/>
    </radialGradient>
    <style>
      .st0{fill-opacity:.5;fill:#fff}.st1{fill:#fff;fill-rule:evenodd}
    </style>
  </defs>
  <path fill="url(#radial-gradient)" d="M0 6c0-3.3 2.7-6 6-6h24c3.3 0 6 2.7 6 6v24c0 3.3-2.7 6-6 6H6c-3.3 0-6-2.7-6-6V6Z"/>
  <path d="M10.9 15c.8 0 1.5.7 1.5 1.5v12.8c0 .8-.7 1.5-1.5 1.5s-1.5-.7-1.5-1.5V16.5c0-.8.7-1.5 1.5-1.5Z" class="st1"/>
  <path d="M4.3 24.9c0-.8.7-1.5 1.5-1.5h14.3c.8 0 1.5.7 1.5 1.5s-.7 1.5-1.5 1.5H5.9c-.8 0-1.5-.7-1.5-1.5Z" class="st1"/>
  <path d="M18 0h9v9h-9V0Z" class="st0"/>
  <path fill="#fff" fill-opacity=".8" d="M27 0h3c3.3 0 6 2.7 6 6v3h-9V0Z"/>
  <path d="M27 9h9v9h-9V9Z" class="st0"/>
</svg>
