<?xml version="1.0" encoding="UTF-8" standalone="no"?>
<!DOCTYPE svg PUBLIC "-//W3C//DTD SVG 1.1//EN" "http://www.w3.org/Graphics/SVG/1.1/DTD/svg11.dtd">
<svg width="36px" height="36px" version="1.1" xmlns="http://www.w3.org/2000/svg" xmlns:xlink="http://www.w3.org/1999/xlink" xml:space="preserve" xmlns:serif="http://www.serif.com/" style="fill-rule:evenodd;clip-rule:evenodd;stroke-linecap:round;stroke-miterlimit:10;">
    <g>
        <path d="M23.69,3.006L27.767,0.368C29.181,-0.547 31.057,0.336 31.271,2.013L32.258,9.755L23.688,3.006L23.69,3.006Z" style="fill:rgb(109,74,255);fill-rule:nonzero;"/>
        <path d="M12.62,3.006L8.543,0.368C7.129,-0.547 5.253,0.336 5.039,2.013L4.052,9.755L12.622,3.006L12.62,3.006Z" style="fill:rgb(109,74,255);fill-rule:nonzero;"/>
        <path d="M7.417,3.482L9.396,4.764L6.168,6.949L6.559,3.884C6.612,3.473 7.071,3.259 7.415,3.482L7.417,3.482Z" style="fill:rgb(74,45,197);fill-rule:nonzero;"/>
        <path d="M28.585,3.482L26.606,4.764L29.833,6.949L29.442,3.884C29.39,3.473 28.931,3.259 28.587,3.482L28.585,3.482Z" style="fill:rgb(74,45,197);fill-rule:nonzero;"/>
        <rect x="7.005" y="24.843" width="21.992" height="5.798" style="fill:rgb(65,41,163);fill-rule:nonzero;"/>
        <path d="M18.571,36C20.604,36 22.252,34.34 22.252,32.292C22.252,30.244 20.604,28.584 18.571,28.584C16.538,28.584 14.891,30.244 14.891,32.292C14.891,34.34 16.538,36 18.571,36Z" style="fill:rgb(252,143,0);fill-rule:nonzero;"/>
        <rect x="17.194" y="28.585" width="1.41" height="7.414" style="fill:rgb(252,143,0);fill-rule:nonzero;"/>
        <path d="M17.195,36C19.228,36 20.876,34.34 20.876,32.292C20.876,30.244 19.228,28.584 17.195,28.584C15.163,28.584 13.515,30.244 13.515,32.292C13.515,34.34 15.163,36 17.195,36Z" style="fill:rgb(255,172,46);fill-rule:nonzero;"/>
        <path d="M17.195,32.9C17.827,32.9 18.34,32.384 18.34,31.747C18.34,31.11 17.827,30.594 17.195,30.594C16.563,30.594 16.05,31.11 16.05,31.747C16.05,32.384 16.563,32.9 17.195,32.9Z" style="fill:rgb(55,37,128);fill-rule:nonzero;"/>
        <path d="M17.196,33.555L17.196,31.75" style="fill:none;fill-rule:nonzero;stroke:rgb(55,37,128);stroke-width:1.28px;"/>
        <path d="M35.07,17.868C35.07,25.769 25.763,28.585 18,28.585C11.176,28.585 0.93,25.769 0.93,17.868C0.93,9.968 8.573,1.982 18,1.982C27.427,1.982 35.07,9.968 35.07,17.868Z" style="fill:rgb(109,74,255);fill-rule:nonzero;"/>
        <path d="M26.368,20.444C29.19,19.218 30.603,16.178 29.522,13.654C28.442,11.13 25.277,10.078 22.455,11.305C19.632,12.531 18.22,15.571 19.3,18.095C20.381,20.619 23.545,21.671 26.368,20.444Z" style="fill:white;fill-rule:nonzero;"/>
        <path d="M13.655,18.097C14.736,15.573 13.323,12.533 10.501,11.307C7.678,10.08 4.514,11.132 3.433,13.656C2.353,16.18 3.765,19.22 6.588,20.446C9.411,21.672 12.575,20.621 13.655,18.097Z" style="fill:white;fill-rule:nonzero;"/>
        <path d="M24.695,18.956C25.724,18.956 26.558,17.587 26.558,15.898C26.558,14.209 25.724,12.839 24.695,12.839C23.667,12.839 22.832,14.209 22.832,15.898C22.832,17.587 23.667,18.956 24.695,18.956Z" style="fill:rgb(65,41,163);fill-rule:nonzero;"/>
        <path d="M13.822,14.958C12.271,11.161 6.598,9.711 4.047,13.207C3.252,14.316 3.059,15.752 3.367,17.098C2.282,15.049 3.102,12.417 5.055,11.22C8.245,9.12 13.189,11.146 13.822,14.96L13.822,14.958Z" style="fill:rgb(55,36,128);fill-rule:nonzero;"/>
        <path d="M19.135,14.959C19.768,11.145 24.712,9.121 27.902,11.219C29.855,12.416 30.675,15.05 29.59,17.097C29.9,15.753 29.705,14.315 28.91,13.206C26.359,9.71 20.686,11.161 19.135,14.957L19.135,14.959Z" style="fill:rgb(55,36,128);fill-rule:nonzero;"/>
        <path d="M14.772,20.326C15.396,20.326 15.9,20.835 15.9,21.462" style="fill:none;fill-rule:nonzero;stroke:white;stroke-width:0.57px;"/>
        <path d="M17.025,20.326C16.401,20.326 15.897,20.835 15.897,21.462" style="fill:none;fill-rule:nonzero;stroke:white;stroke-width:0.57px;"/>
        <path d="M25.83,14.608C26.219,14.608 26.533,14.291 26.533,13.9C26.533,13.509 26.219,13.192 25.83,13.192C25.442,13.192 25.127,13.509 25.127,13.9C25.127,14.291 25.442,14.608 25.83,14.608Z" style="fill:white;fill-opacity:0.7;fill-rule:nonzero;"/>
        <path d="M8.634,18.956C9.662,18.956 10.496,17.587 10.496,15.898C10.496,14.209 9.662,12.839 8.634,12.839C7.605,12.839 6.771,14.209 6.771,15.898C6.771,17.587 7.605,18.956 8.634,18.956Z" style="fill:rgb(65,41,163);fill-rule:nonzero;"/>
        <path d="M9.769,14.608C10.157,14.608 10.472,14.291 10.472,13.9C10.472,13.509 10.157,13.192 9.769,13.192C9.38,13.192 9.066,13.509 9.066,13.9C9.066,14.291 9.38,14.608 9.769,14.608Z" style="fill:white;fill-opacity:0.7;fill-rule:nonzero;"/>
    </g>
</svg>
