<svg width="36" height="36" viewBox="0 0 36 36" fill="none" xmlns="http://www.w3.org/2000/svg">
<g clip-path="url(#clip0_4905_759)">
<path d="M28.295 12.3849V30.4346C27.7497 30.0871 27.2044 29.7359 26.6554 29.3883C26.498 29.2896 26.337 29.1871 26.1613 29.1359C25.982 29.0847 25.777 29.0884 25.6196 29.1871C25.4952 29.2676 25.411 29.3993 25.3488 29.5347C25.3012 29.6298 25.261 29.7249 25.2207 29.8237C24.9791 30.676 24.4631 31.4113 23.7787 31.9381C23.7567 31.9528 23.7348 31.9711 23.7128 31.9857C23.5774 32.0881 23.4346 32.1832 23.2846 32.2637C23.2809 32.2637 23.2736 32.2747 23.2663 32.2783C23.2663 32.2783 23.2626 32.2783 23.259 32.282C23.1199 32.3552 22.9771 32.4247 22.8271 32.4832C22.7941 32.4978 22.7612 32.5088 22.7283 32.5198C22.6148 32.5637 22.494 32.6039 22.3733 32.6369C22.333 32.6478 22.2891 32.6588 22.2488 32.6698C22.1317 32.6954 22.0109 32.7173 21.8901 32.7356C21.8499 32.7429 21.8096 32.7503 21.7694 32.7539C21.612 32.7722 21.4546 32.7832 21.2936 32.7832H4.02594C1.80069 32.7832 0 30.9833 0 28.7591V8.36084H13.5894C13.7504 8.36084 13.9078 8.37181 14.0652 8.39011C14.1054 8.39376 14.1457 8.40108 14.1896 8.4084C14.3067 8.42669 14.4275 8.44864 14.5446 8.4779C14.5849 8.48522 14.6288 8.49619 14.6727 8.51083C14.7898 8.54375 14.9106 8.58033 15.0241 8.62423C15.057 8.63521 15.0936 8.64618 15.1266 8.66081C15.273 8.71935 15.4194 8.78885 15.5548 8.86568H15.5621C15.5621 8.86568 15.5767 8.87665 15.5841 8.88031C15.7305 8.96445 15.8732 9.0559 16.0086 9.15833C16.0306 9.17297 16.0525 9.19126 16.0745 9.20955C16.7626 9.73268 17.2749 10.468 17.5202 11.3203C17.5568 11.4191 17.597 11.5142 17.6446 11.6093C17.7105 11.7447 17.791 11.8764 17.9191 11.9569C18.0728 12.0557 18.2778 12.0593 18.4571 12.0081C18.6328 11.9569 18.7938 11.8544 18.9512 11.7557C19.7601 11.2399 20.5689 10.7241 21.3741 10.2082C21.3814 10.2046 21.3851 10.2009 21.3887 10.1973L21.4143 10.1826C21.4143 10.1826 21.4217 10.1826 21.4253 10.1753C21.5022 10.1278 21.579 10.0765 21.6596 10.0253H21.6669C21.7145 9.98875 21.762 9.95949 21.8133 9.92656C22.0914 9.74731 22.3733 9.57171 22.6587 9.3888C23.9653 8.55473 25.5464 8.66081 26.6993 9.41441C27.5631 9.97778 28.1852 10.896 28.2804 12.052C28.2877 12.1617 28.295 12.2715 28.295 12.3849Z" fill="#6D4AFF"/>
<path d="M28.295 12.3849V30.4346C27.7497 30.0871 27.2044 29.7359 26.6554 29.3883C26.498 29.2896 26.337 29.1871 26.1613 29.1359C25.982 29.0847 25.777 29.0884 25.6196 29.1871C25.4952 29.2676 25.411 29.3993 25.3488 29.5347C25.3012 29.6298 25.261 29.7249 25.2207 29.8237C24.9791 30.676 24.4631 31.4113 23.7787 31.9381C23.7567 31.9528 23.7348 31.9711 23.7128 31.9857C23.5774 32.0881 23.4346 32.1832 23.2846 32.2637C23.2809 32.2637 23.2736 32.2747 23.2663 32.2783C23.2663 32.2783 23.2626 32.2783 23.259 32.282C23.1199 32.3552 22.9771 32.4247 22.8271 32.4832C22.7941 32.4978 22.7612 32.5088 22.7283 32.5198C22.6148 32.5637 22.494 32.6039 22.3733 32.6369C22.333 32.6478 22.2891 32.6588 22.2488 32.6698C22.1317 32.6954 22.0109 32.7173 21.8901 32.7356C21.8499 32.7429 21.8096 32.7503 21.7694 32.7539C21.612 32.7722 21.4546 32.7832 21.2936 32.7832H4.02594C1.80069 32.7832 0 30.9833 0 28.7591V8.36084H13.5894C13.7504 8.36084 13.9078 8.37181 14.0652 8.39011C14.1054 8.39376 14.1457 8.40108 14.1896 8.4084C14.3067 8.42669 14.4275 8.44864 14.5446 8.4779C14.5849 8.48522 14.6288 8.49619 14.6727 8.51083C14.7898 8.54375 14.9106 8.58033 15.0241 8.62423C15.057 8.63521 15.0936 8.64618 15.1266 8.66081C15.273 8.71935 15.4194 8.78885 15.5548 8.86568H15.5621C15.5621 8.86568 15.5767 8.87665 15.5841 8.88031C15.7305 8.96445 15.8732 9.0559 16.0086 9.15833C16.0306 9.17297 16.0525 9.19126 16.0745 9.20955C16.7626 9.73268 17.2749 10.468 17.5202 11.3203C17.5568 11.4191 17.597 11.5142 17.6446 11.6093C17.7105 11.7447 17.791 11.8764 17.9191 11.9569C18.0728 12.0557 18.2778 12.0593 18.4571 12.0081C18.6328 11.9569 18.7938 11.8544 18.9512 11.7557C19.7601 11.2399 20.5689 10.7241 21.3741 10.2082C21.3814 10.2046 21.3851 10.2009 21.3887 10.1973L21.4143 10.1826C21.4143 10.1826 21.4217 10.1826 21.4253 10.1753C21.5022 10.1278 21.579 10.0765 21.6596 10.0253H21.6669C21.7145 9.98875 21.762 9.95949 21.8133 9.92656C22.0914 9.74731 22.3733 9.57171 22.6587 9.3888C23.9653 8.55473 25.5464 8.66081 26.6993 9.41441C27.5631 9.97778 28.1852 10.896 28.2804 12.052C28.2877 12.1617 28.295 12.2715 28.295 12.3849Z" fill="url(#paint0_radial_4905_759)"/>
<g style="mix-blend-mode:multiply">
<path d="M28.295 12.3849V30.4346C27.7497 30.0871 27.2044 29.7359 26.6554 29.3883C26.498 29.2896 26.337 29.1871 26.1613 29.1359C25.982 29.0847 25.777 29.0884 25.6196 29.1871C25.4952 29.2676 25.411 29.3993 25.3488 29.5347C25.3012 29.6298 25.261 29.7249 25.2207 29.8237C24.9791 30.676 24.4631 31.4113 23.7787 31.9381C23.7567 31.9528 23.7348 31.9711 23.7128 31.9857C23.5774 32.0881 23.4346 32.1832 23.2846 32.2637C23.2809 32.2637 23.2736 32.2747 23.2663 32.2783C23.2663 32.2783 23.2626 32.2783 23.259 32.282C23.1199 32.3552 22.9771 32.4247 22.8271 32.4832C22.7941 32.4978 22.7612 32.5088 22.7283 32.5198C22.6148 32.5637 22.494 32.6039 22.3733 32.6369C22.333 32.6478 22.2891 32.6588 22.2488 32.6698C22.1317 32.6954 22.0109 32.7173 21.8901 32.7356C21.8499 32.7429 21.8096 32.7503 21.7694 32.7539C21.612 32.7722 21.4546 32.7832 21.2936 32.7832H4.02594C1.80069 32.7832 0 30.9833 0 28.7591V8.36084H13.5894C13.7504 8.36084 13.9078 8.37181 14.0652 8.39011C14.1054 8.39376 14.1457 8.40108 14.1896 8.4084C14.3067 8.42669 14.4275 8.44864 14.5446 8.4779C14.5849 8.48522 14.6288 8.49619 14.6727 8.51083C14.7898 8.54375 14.9106 8.58033 15.0241 8.62423C15.057 8.63521 15.0936 8.64618 15.1266 8.66081C15.273 8.71935 15.4194 8.78885 15.5548 8.86568H15.5621C15.5621 8.86568 15.5767 8.87665 15.5841 8.88031C15.7305 8.96445 15.8732 9.0559 16.0086 9.15833C16.0306 9.17297 16.0525 9.19126 16.0745 9.20955C16.7626 9.73268 17.2749 10.468 17.5202 11.3203C17.5568 11.4191 17.597 11.5142 17.6446 11.6093C17.7105 11.7447 17.791 11.8764 17.9191 11.9569C18.0728 12.0557 18.2778 12.0593 18.4571 12.0081C18.6328 11.9569 18.7938 11.8544 18.9512 11.7557C19.7601 11.2399 20.5689 10.7241 21.3741 10.2082C21.3814 10.2046 21.3851 10.2009 21.3887 10.1973L21.4143 10.1826C21.4143 10.1826 21.4217 10.1826 21.4253 10.1753C21.5022 10.1278 21.579 10.0765 21.6596 10.0253H21.6669C21.7145 9.98875 21.762 9.95949 21.8133 9.92656C22.0914 9.74731 22.3733 9.57171 22.6587 9.3888C23.9653 8.55473 25.5464 8.66081 26.6993 9.41441C27.5631 9.97778 28.1852 10.896 28.2804 12.052C28.2877 12.1617 28.295 12.2715 28.295 12.3849Z" fill="#1B1340" fill-opacity="0.1"/>
</g>
<path opacity="0.2" d="M28.295 12.3849V30.4346C27.7497 30.0871 27.2044 29.7359 26.6554 29.3883C26.498 29.2896 26.337 29.1871 26.1613 29.1359C25.982 29.0847 25.777 29.0884 25.6196 29.1871C25.4952 29.2676 25.411 29.3993 25.3488 29.5347C25.3012 29.6298 25.261 29.7249 25.2207 29.8237C24.9791 30.676 24.4631 31.4113 23.7787 31.9381C23.7567 31.9528 23.7348 31.9711 23.7128 31.9857C23.5774 32.0881 23.4346 32.1832 23.2846 32.2637C23.2809 32.2637 23.2736 32.2747 23.2663 32.2783C23.2663 32.2783 23.2626 32.2783 23.259 32.282C23.1199 32.3552 22.9771 32.4247 22.8271 32.4832C22.7941 32.4978 22.7612 32.5088 22.7283 32.5198C22.6148 32.5637 22.494 32.6039 22.3733 32.6369C22.333 32.6478 22.2891 32.6588 22.2488 32.6698C22.1317 32.6954 22.0109 32.7173 21.8901 32.7356C21.8499 32.7429 21.8096 32.7503 21.7694 32.7539C21.612 32.7722 21.4546 32.7832 21.2936 32.7832H4.02594C1.80069 32.7832 0 30.9833 0 28.7591V8.36084H13.5894C13.7504 8.36084 13.9078 8.37181 14.0652 8.39011C14.1054 8.39376 14.1457 8.40108 14.1896 8.4084C14.3067 8.42669 14.4275 8.44864 14.5446 8.4779C14.5849 8.48522 14.6288 8.49619 14.6727 8.51083C14.7898 8.54375 14.9106 8.58033 15.0241 8.62423C15.057 8.63521 15.0936 8.64618 15.1266 8.66081C15.273 8.71935 15.4194 8.78885 15.5548 8.86568H15.5621C15.5621 8.86568 15.5767 8.87665 15.5841 8.88031C15.7305 8.96445 15.8732 9.0559 16.0086 9.15833C16.0306 9.17297 16.0525 9.19126 16.0745 9.20955C16.7626 9.73268 17.2749 10.468 17.5202 11.3203C17.5568 11.4191 17.597 11.5142 17.6446 11.6093C17.7105 11.7447 17.791 11.8764 17.9191 11.9569C18.0728 12.0557 18.2778 12.0593 18.4571 12.0081C18.6328 11.9569 18.7938 11.8544 18.9512 11.7557C19.7601 11.2399 20.5689 10.7241 21.3741 10.2082C21.3814 10.2046 21.3851 10.2009 21.3887 10.1973L21.4143 10.1826C21.4143 10.1826 21.4217 10.1826 21.4253 10.1753C21.5022 10.1278 21.579 10.0765 21.6596 10.0253H21.6669C21.7145 9.98875 21.762 9.95949 21.8133 9.92656C22.0914 9.74731 22.3733 9.57171 22.6587 9.3888C23.9653 8.55473 25.5464 8.66081 26.6993 9.41441C27.5631 9.97778 28.1852 10.896 28.2804 12.052C28.2877 12.1617 28.295 12.2715 28.295 12.3849Z" fill="#6D4AFF"/>
<path d="M29.0783 5.0642L21.8133 9.92599C21.762 9.95891 21.7145 9.98818 21.6669 10.0211H21.6596C21.579 10.076 21.5022 10.1272 21.4253 10.1748C21.4217 10.1784 21.418 10.1784 21.4143 10.1821L21.3887 10.1967C21.3887 10.1967 21.3814 10.204 21.3741 10.2077C20.5689 10.7235 19.7601 11.2393 18.9512 11.7551C18.7938 11.8539 18.6328 11.9563 18.4571 12.0075C18.2778 12.0587 18.0728 12.0551 17.9191 11.9563C17.791 11.8758 17.7105 11.7441 17.6446 11.6088C17.597 11.5137 17.5568 11.4185 17.5202 11.3198C17.2749 10.4674 16.7626 9.7321 16.0745 9.20898C16.0525 9.19069 16.0306 9.1724 16.0086 9.15776C15.8732 9.05533 15.7305 8.96388 15.5841 8.87974C15.5767 8.87974 15.5694 8.86876 15.5621 8.8651H15.5548C15.4194 8.78828 15.273 8.71877 15.1266 8.66024C15.0936 8.64561 15.057 8.63464 15.0241 8.62366C14.9106 8.57976 14.7898 8.54318 14.6727 8.51026C14.6288 8.49562 14.5849 8.48465 14.5446 8.47733C14.4275 8.44807 14.3067 8.42612 14.1896 8.40783C14.1457 8.40051 14.1054 8.39319 14.0652 8.38953C13.9078 8.37124 13.7504 8.36027 13.5894 8.36027H0V7.24085C0 5.0203 1.80069 3.2168 4.02594 3.2168H21.2936C21.4546 3.2168 21.612 3.22777 21.7694 3.24606C21.8096 3.25338 21.8499 3.2607 21.8901 3.26435C22.0109 3.28265 22.1317 3.30459 22.2488 3.33386C22.2891 3.34483 22.333 3.35581 22.3733 3.36678C22.494 3.39971 22.6148 3.43995 22.7283 3.48019C22.7612 3.49482 22.7941 3.5058 22.8271 3.51677C22.9771 3.57896 23.1199 3.64481 23.259 3.72163C23.2626 3.72163 23.2663 3.72529 23.2663 3.72529C23.2736 3.72895 23.2809 3.73261 23.2846 3.73627C23.4346 3.8204 23.5774 3.91552 23.7128 4.01429C23.7348 4.03258 23.7567 4.04722 23.7787 4.06551C24.4631 4.59229 24.9791 5.3276 25.2207 6.17631C25.261 6.27508 25.3012 6.37385 25.3488 6.46531C25.411 6.60066 25.4952 6.73236 25.6196 6.81284C25.777 6.91527 25.982 6.91893 26.1613 6.86405C26.337 6.81284 26.498 6.71406 26.6554 6.61163C27.4642 6.09948 28.2694 5.58001 29.0783 5.0642Z" fill="url(#paint1_linear_4905_759)"/>
<path d="M36.0002 7.24137V28.7591C36.0002 28.8725 35.9928 28.9822 35.9855 29.092C35.7623 31.7917 32.644 33.2148 30.3638 31.7552L29.0938 30.9467C29.0938 30.9467 29.0865 30.9394 29.0792 30.9357C28.8193 30.7674 28.5558 30.6028 28.296 30.4345V12.3848C28.296 12.2714 28.2887 12.1617 28.2813 12.0519C28.1862 10.8959 27.564 9.97772 26.7002 9.41436C25.5474 8.66076 23.9663 8.55467 22.6597 9.38875C22.3742 9.57166 22.0924 9.74725 21.8142 9.92651L29.0792 5.06472L29.0938 5.0574L29.189 4.99521C29.2988 4.92571 29.4086 4.8562 29.5184 4.7867C29.7966 4.60744 30.0784 4.42819 30.3638 4.24528C32.644 2.7893 35.7623 4.2087 35.9855 6.90847C35.9928 7.01822 36.0002 7.12796 36.0002 7.24137Z" fill="url(#paint2_linear_4905_759)"/>
<g style="mix-blend-mode:multiply" opacity="0.1">
<path d="M30.3633 4.24719C32.6434 2.79122 35.7621 4.21051 35.9854 6.91028C35.9927 7.01992 36 7.12999 36 7.24329V28.7609C36 28.8742 35.9927 28.9842 35.9854 29.0939C35.7618 31.7934 32.6433 33.2165 30.3633 31.757L29.0938 30.9484C29.0938 30.9484 29.0863 30.9413 29.0791 30.9376C28.8192 30.7693 28.5558 30.6039 28.2959 30.4357V12.3859C28.2959 12.2728 28.2886 12.1633 28.2812 12.0538C28.1861 10.898 27.5638 9.97952 26.7002 9.41614C25.5473 8.66256 23.9658 8.55576 22.6592 9.38977C22.3737 9.57268 22.0916 9.7486 21.8135 9.92786L29.0791 5.06653L29.0938 5.05872L29.1885 4.99719C29.2983 4.92769 29.4088 4.85771 29.5186 4.78821C29.7965 4.6091 30.078 4.42995 30.3633 4.24719ZM21.293 3.21887C21.454 3.21887 21.6122 3.22988 21.7695 3.24817C21.8096 3.25545 21.8496 3.26306 21.8896 3.26672C22.0104 3.28501 22.1319 3.30679 22.249 3.33606C22.2892 3.34701 22.3329 3.35832 22.373 3.36926C22.4938 3.40219 22.6151 3.4423 22.7285 3.48254C22.7613 3.4971 22.7943 3.50774 22.8271 3.51868C22.9772 3.58085 23.1198 3.64696 23.2588 3.72375C23.2624 3.72375 23.2666 3.72766 23.2666 3.72766C23.2737 3.73119 23.2805 3.73488 23.2842 3.7384C23.4342 3.82254 23.5775 3.91795 23.7129 4.01672C23.7347 4.03486 23.7565 4.04937 23.7783 4.0675C24.4627 4.59429 24.9791 5.33012 25.2207 6.17883C25.2609 6.2775 25.3011 6.37653 25.3486 6.4679C25.4108 6.60297 25.4951 6.73412 25.6191 6.81458C25.7765 6.91699 25.9818 6.92119 26.1611 6.86633C26.3368 6.81512 26.4979 6.71583 26.6553 6.6134C27.464 6.10131 28.2694 5.58228 29.0781 5.06653L21.8135 9.92786C21.7623 9.96077 21.7146 9.99065 21.667 10.0236H21.6592C21.5788 10.0784 21.5016 10.1294 21.4248 10.1769C21.4212 10.1804 21.4177 10.1811 21.4141 10.1847L21.3887 10.1993C21.3875 10.2005 21.3807 10.2068 21.374 10.2101C20.5689 10.7258 19.7599 11.2412 18.9512 11.757C18.7938 11.8557 18.6327 11.9587 18.457 12.0099C18.2777 12.0611 18.0727 12.0569 17.9189 11.9581C17.7911 11.8777 17.7103 11.7466 17.6445 11.6115C17.597 11.5165 17.5571 11.421 17.5205 11.3224C17.2753 10.47 16.7623 9.73419 16.0742 9.21106C16.0524 9.19291 16.0306 9.17484 16.0088 9.16028C15.8734 9.05786 15.7304 8.96609 15.584 8.88196C15.5767 8.88196 15.5688 8.87097 15.5615 8.86731H15.5547C15.4193 8.79049 15.2724 8.72076 15.126 8.66223C15.0933 8.64777 15.0571 8.63697 15.0244 8.6261C14.9111 8.58224 14.7899 8.54572 14.6729 8.51282C14.6291 8.49823 14.5851 8.48693 14.5449 8.47961C14.4278 8.45035 14.3066 8.42857 14.1895 8.41028C14.1457 8.40298 14.1056 8.39539 14.0654 8.39172C13.9081 8.37343 13.7499 8.36243 13.5889 8.36243H0V7.24329C0 5.02289 1.80034 3.21911 4.02539 3.21887H21.293Z" fill="#6D4AFF"/>
</g>
</g>
<defs>
<radialGradient id="paint0_radial_4905_759" cx="0" cy="0" r="1" gradientUnits="userSpaceOnUse" gradientTransform="translate(5.15167 32.1556) rotate(-60.116) scale(24.5331 32.5915)">
<stop stop-color="#B8C6E5"/>
<stop offset="0.418768" stop-color="#9388F2"/>
<stop offset="0.716275" stop-color="#6D4AFF"/>
</radialGradient>
<linearGradient id="paint1_linear_4905_759" x1="2.05966" y1="0.249084" x2="9.36798" y2="16.0717" gradientUnits="userSpaceOnUse">
<stop stop-color="#6652F5"/>
<stop offset="0.33754" stop-color="#9A9CF9"/>
<stop offset="0.868809" stop-color="#D9DAFC"/>
</linearGradient>
<linearGradient id="paint2_linear_4905_759" x1="24.8768" y1="1.39469" x2="41.756" y2="6.59665" gradientUnits="userSpaceOnUse">
<stop stop-color="#6652F5"/>
<stop offset="0.33754" stop-color="#9A9CF9"/>
<stop offset="0.868809" stop-color="#D9DAFC"/>
</linearGradient>
<clipPath id="clip0_4905_759">
<rect width="36" height="36" fill="white"/>
</clipPath>
</defs>
</svg>
