<?xml version="1.0" encoding="utf-8"?>
<!-- Generator: Adobe Illustrator 26.0.3, SVG Export Plug-In . SVG Version: 6.00 Build 0)  -->
<svg version="1.0" id="katman_1" xmlns="http://www.w3.org/2000/svg" xmlns:xlink="http://www.w3.org/1999/xlink" x="0px" y="0px"
	 viewBox="0 0 800 600" style="enable-background:new 0 0 800 600;" xml:space="preserve">
<style type="text/css">
	.st0{fill:#6D4AFF;}
</style>
<path class="st0" d="M226.3,372.3v-58.7c0-23.9,14-43,41.9-43c4.5-0.1,9,0.4,13.3,1.5v24.1c-3.2-0.2-5.9-0.2-7.2-0.2
	c-14.8,0-21.2,6.8-21.2,20.5v55.7H226.3z M289.5,322.6c0-29.4,22.2-51.9,53.1-51.9c30.9,0,53.1,22.4,53.1,51.9
	c0,29.5-22.2,52.1-53.1,52.1S289.5,352,289.5,322.6z M369.3,322.6c0-16.7-11.2-28.6-26.7-28.6S316,305.8,316,322.6
	c0,16.9,11.2,28.6,26.7,28.6C358.1,351.2,369.3,339.5,369.3,322.6L369.3,322.6z M473.6,294.2h-29v37.1c0,12.9,4.7,18.8,18,18.8
	c1.3,0,4.4,0,8.5-0.2v21.8c-5.5,1.5-10.3,2.3-15.6,2.3c-22.4,0-37.7-13.6-37.7-39.2v-40.7h-18v-21.4h4.5c7.4,0,13.5-6,13.5-13.5
	c0,0,0,0,0-0.1v-20.1h26.9v33.7h29L473.6,294.2L473.6,294.2z M481.6,322.6c0-29.4,22.2-51.9,53.1-51.9c30.9,0,53.1,22.4,53.1,51.9
	c0,29.5-22.2,52.1-53.1,52.1C503.8,374.7,481.6,352,481.6,322.6z M561.4,322.6c0-16.7-11.2-28.6-26.7-28.6s-26.7,11.8-26.7,28.6
	c0,16.9,11.2,28.6,26.7,28.6S561.4,339.5,561.4,322.6L561.4,322.6z M601.8,372.3v-56.5c0-26.3,16.7-45.1,46.5-45.1
	c29.6,0,46.3,18.8,46.3,45.1v56.5H668v-54.4c0-14.6-6.6-23.7-19.7-23.7c-13.1,0-19.7,9.1-19.7,23.7v54.4L601.8,372.3L601.8,372.3z
	 M105,333.8v38.5h27v-36.8c0-7.5,6-13.5,13.5-13.5h27.7c12.9,0,25.3-5.1,34.4-14.3c19-19,19-49.9,0-68.9
	c-9.1-9.1-21.5-14.3-34.4-14.3H105v48.1h27v-22.7h39.4c12.7,0,23,10.3,23,23c0,0,0,0,0,0c0,12.7-10.3,23.1-23,23.1h-28.6
	c-15.3,0-29.1,9.2-34.9,23.3C106,324,105,328.9,105,333.8z"/>
</svg>
